<?xml version="1.0" encoding="UTF-8" standalone="no"?>
<!-- Created with Inkscape (http://www.inkscape.org/) -->

<svg
   width="512"
   height="512"
   viewBox="0 0 512 512"
   version="1.1"
   id="svg1"
   xml:space="preserve"
   inkscape:version="1.3.2 (091e20e, 2023-11-25, custom)"
   sodipodi:docname="station.svg"
   inkscape:export-filename="station.png"
   inkscape:export-xdpi="96"
   inkscape:export-ydpi="96"
   xmlns:inkscape="http://www.inkscape.org/namespaces/inkscape"
   xmlns:sodipodi="http://sodipodi.sourceforge.net/DTD/sodipodi-0.dtd"
   xmlns="http://www.w3.org/2000/svg"
   xmlns:svg="http://www.w3.org/2000/svg"><sodipodi:namedview
     id="namedview1"
     pagecolor="#ffffff"
     bordercolor="#000000"
     borderopacity="0.25"
     inkscape:showpageshadow="2"
     inkscape:pageopacity="0.0"
     inkscape:pagecheckerboard="0"
     inkscape:deskcolor="#d1d1d1"
     inkscape:document-units="px"
     inkscape:zoom="1.5878906"
     inkscape:cx="256"
     inkscape:cy="255.37024"
     inkscape:window-width="1920"
     inkscape:window-height="1009"
     inkscape:window-x="-8"
     inkscape:window-y="-8"
     inkscape:window-maximized="1"
     inkscape:current-layer="layer1" /><defs
     id="defs1" /><g
     inkscape:label="Layer 1"
     inkscape:groupmode="layer"
     id="layer1"><rect
       style="fill:#ffffff;fill-opacity:1;stroke-width:1.36079"
       id="rect1"
       width="512"
       height="512"
       x="5.6843419e-14"
       y="1.5987212e-14"
       ry="101.88931" /><g
       style="fill:#000000;fill-opacity:1"
       id="g1"
       transform="matrix(0.46875,0,0,0.46875,31,490.375)"><path
         d="m 160,-340 v -380 q 0,-41 19,-71.5 19,-30.5 58.5,-50 39.5,-19.5 100,-29 60.5,-9.5 142.5,-9.5 86,0 146.5,9 60.5,9 99,28.5 38.5,19.5 56.5,49.5 18,30 18,73 v 380 q 0,59 -40.5,99.5 Q 719,-200 660,-200 l 60,60 v 20 h -70 l -80,-80 H 390 l -80,80 h -70 v -20 l 60,-60 q -59,0 -99.5,-40.5 Q 160,-281 160,-340 Z m 320,-480 q -120,0 -173,15.5 -53,15.5 -76,44.5 H 732 Q 714,-787 655.5,-803.5 597,-820 480,-820 Z M 220,-545 H 454 V -700 H 220 Z m 440,60 H 220 740 Z M 514,-545 H 740 V -700 H 514 Z m -179,230 q 23,0 39,-16 16,-16 16,-39 0,-23 -16,-39 -16,-16 -39,-16 -23,0 -39,16 -16,16 -16,39 0,23 16,39 16,16 39,16 z m 290,0 q 23,0 39,-16 16,-16 16,-39 0,-23 -16,-39 -16,-16 -39,-16 -23,0 -39,16 -16,16 -16,39 0,23 16,39 16,16 39,16 z m -325,60 h 360 q 34,0 57,-25 23,-25 23,-60 V -485 H 220 v 145 q 0,35 23,60 23,25 57,25 z M 480,-760 H 732 231 Z"
         id="path1"
         style="fill:#000000;fill-opacity:1" /></g></g></svg>
